<svg id="Layer_3" data-name="Layer 3" xmlns="http://www.w3.org/2000/svg" viewBox="0 0 48 48"><defs><style>.cls-1{fill:none;stroke:#231f20;stroke-miterlimit:10;stroke-width:2px;}.cls-2{fill:#231f20;}</style></defs><title>beauty</title><line class="cls-1" x1="9.17" y1="29.29" x2="41.5" y2="29.44"/><path class="cls-1" d="M13.21,29.05V43a2.67,2.67,0,0,0,2.67,2.67H35.41a2.14,2.14,0,0,0,2.14-2.15V29"/><path class="cls-1" d="M25.15,29.29l.1-15a1.71,1.71,0,0,0-1.71-1.72H18.62a1.71,1.71,0,0,0-1.71,1.7v5.25a1.71,1.71,0,0,0,1.73,1.71l6.51-.09"/><path class="cls-2" d="M25.23,15.44V10.6a1.71,1.71,0,0,1,1.7-1.71h4.85a1.7,1.7,0,0,1,1.71,1.71v4.8a1.81,1.81,0,0,1-1.83,1.81l-4.74-.05A1.71,1.71,0,0,1,25.23,15.44Z"/></svg>