<svg id="Layer_3" data-name="Layer 3" xmlns="http://www.w3.org/2000/svg" viewBox="0 0 48 48"><defs><style>.cls-1{fill:#ddb;}.cls-2{fill:none;stroke:#231f20;stroke-miterlimit:10;stroke-width:2px;}.cls-3{fill:#231f20;}</style></defs><title>icons</title><ellipse class="cls-1" cx="23.99" cy="24.02" rx="23.99" ry="23.95"/><path class="cls-2" d="M3.55,23.29A4.67,4.67,0,0,1,6.12,24L9,25.69a2.4,2.4,0,0,0,2.43,0l2.89-1.63a5.16,5.16,0,0,1,5.49.22l1.89,1.27a3.46,3.46,0,0,0,3.77.08l2.91-1.77a3.83,3.83,0,0,1,4.15.08l2.25,1.49a4.11,4.11,0,0,0,4.5.05l2.51-1.57a3.68,3.68,0,0,1,2-.57"/><path class="cls-2" d="M3.55,31.23a4.76,4.76,0,0,1,2.57.67L9,33.63a2.4,2.4,0,0,0,2.43,0L14.33,32a5.18,5.18,0,0,1,5.49.22l1.89,1.27a3.46,3.46,0,0,0,3.77.09l2.91-1.78a3.83,3.83,0,0,1,4.15.08l2.25,1.49a4.13,4.13,0,0,0,4.5.06l2.51-1.58a3.66,3.66,0,0,1,2-.56"/><polygon class="cls-3" points="17.13 18.87 21.47 11.41 12.79 11.41 17.13 18.87"/></svg>