<svg id="Layer_3" data-name="Layer 3" xmlns="http://www.w3.org/2000/svg" viewBox="0 0 48 48"><defs><style>.cls-1{fill:none;stroke:#231f20;stroke-miterlimit:10;stroke-width:2px;}.cls-2{fill:#231f20;}</style></defs><title>stormwater</title><path class="cls-1" d="M.09,23.25a5.64,5.64,0,0,1,3.06.8L6.6,26.11a2.83,2.83,0,0,0,2.88,0l3.45-1.94a6.14,6.14,0,0,1,6.53.27L21.72,26a4.11,4.11,0,0,0,4.49.1L29.67,24a4.54,4.54,0,0,1,4.94.09l2.68,1.77a4.88,4.88,0,0,0,5.36.07l3-1.87A4.37,4.37,0,0,1,48,23.35"/><path class="cls-1" d="M.09,32.7a5.65,5.65,0,0,1,3.06.81L6.6,35.56a2.83,2.83,0,0,0,2.88,0l3.45-1.94a6.16,6.16,0,0,1,6.53.26l2.26,1.51a4.11,4.11,0,0,0,4.49.11l3.46-2.11a4.54,4.54,0,0,1,4.94.09l2.68,1.77a4.9,4.9,0,0,0,5.36.07l3-1.87A4.29,4.29,0,0,1,48,32.81"/><polygon class="cls-2" points="16.26 17.99 21.43 9.11 11.09 9.11 16.26 17.99"/></svg>